<?xml version="1.0" encoding="UTF-8" standalone="no"?>
<!-- Created with Inkscape (http://www.inkscape.org/) -->

<svg
   xmlns:dc="http://purl.org/dc/elements/1.1/"
   xmlns:cc="http://creativecommons.org/ns#"
   xmlns:rdf="http://www.w3.org/1999/02/22-rdf-syntax-ns#"
   xmlns:svg="http://www.w3.org/2000/svg"
   xmlns="http://www.w3.org/2000/svg"
   xmlns:sodipodi="http://sodipodi.sourceforge.net/DTD/sodipodi-0.dtd"
   xmlns:inkscape="http://www.inkscape.org/namespaces/inkscape"
   width="200.81244mm"
   height="202.39365mm"
   viewBox="0 0 711.54014 717.14284"
   id="svg4432"
   version="1.1"
   inkscape:version="0.91 r13725"
   sodipodi:docname="aperturus.svg">
  <defs
     id="defs4434" />
  <sodipodi:namedview
     id="base"
     pagecolor="#ffffff"
     bordercolor="#666666"
     borderopacity="1.0"
     inkscape:pageopacity="0.0"
     inkscape:pageshadow="2"
     inkscape:zoom="0.35"
     inkscape:cx="-51.888264"
     inkscape:cy="428.58756"
     inkscape:document-units="px"
     inkscape:current-layer="layer1"
     showgrid="false"
     fit-margin-top="0"
     fit-margin-left="0"
     fit-margin-right="0"
     fit-margin-bottom="0"
     inkscape:window-width="1436"
     inkscape:window-height="855"
     inkscape:window-x="218"
     inkscape:window-y="70"
     inkscape:window-maximized="0" />
  <metadata
     id="metadata4437">
    <rdf:RDF>
      <cc:Work
         rdf:about="">
        <dc:format>image/svg+xml</dc:format>
        <dc:type
           rdf:resource="http://purl.org/dc/dcmitype/StillImage" />
        <dc:title />
      </cc:Work>
    </rdf:RDF>
  </metadata>
  <g
     inkscape:label="Layer 1"
     inkscape:groupmode="layer"
     id="layer1"
     transform="translate(1597.0917,-157.13776)">
    <ellipse
       style="opacity:1;fill:#000000;fill-opacity:1;fill-rule:evenodd;stroke:none"
       id="path4260"
       cx="-1241.411"
       cy="515.6192"
       rx="355.68082"
       ry="358.48141" />
    <circle
       style="opacity:1;fill:#ffffff;fill-opacity:1;fill-rule:evenodd;stroke:none"
       id="path4273"
       cx="-1241.4944"
       cy="515.90552"
       r="343.57022" />
    <path
       style="opacity:1;fill:#d40000;fill-opacity:1;fill-rule:evenodd;stroke:none"
       d="m -1339.3149,711.0864 c -36.239,-19.47385 -62.7858,-44.25639 -85.4061,-79.73017 l -4.6544,-7.29915 13.9663,-21.4811 c 21.5175,-33.09572 54.3928,-82.21036 54.7734,-81.82978 0.5731,0.57311 8.9346,44.51914 18.8253,98.94036 2.1576,11.87187 5.0994,28.06075 6.5375,35.97533 3.2679,17.98559 7.5433,41.73298 9.5976,53.30889 1.0855,6.11739 1.1401,8.82466 0.1776,8.81212 -0.7641,-0.0101 -6.9818,-3.0234 -13.8172,-6.6965 z"
       id="path4295"
       inkscape:connector-curvature="0" />
    <path
       style="opacity:1;fill:#d40000;fill-opacity:1;fill-rule:evenodd;stroke:none"
       d="m -1445.6527,585.34649 c -8.9478,-27.45701 -12.7012,-58.33824 -10.176,-83.72438 2.8564,-28.71742 6.9333,-46.76792 10.5629,-46.76792 2.0686,0 39.8098,-7.22891 92.7338,-17.7621 12.5172,-2.4912 23.0025,-4.28524 23.3011,-3.98675 0.7149,0.71502 -109.5203,166.95833 -110.7094,166.95833 -0.5041,0 -3.0747,-6.62274 -5.7124,-14.71718 z"
       id="path4297"
       inkscape:connector-curvature="0" />
    <path
       style="opacity:1;fill:#d40000;fill-opacity:1;fill-rule:evenodd;stroke:none"
       d="m -1437.9974,429.66323 c 1.7912,-5.77047 9.583,-20.13686 17.2011,-31.71546 11.7334,-17.83323 26.6181,-34.78562 41.0658,-46.77009 12.815,-10.63018 35.4242,-25.83464 38.4164,-25.83464 0.8429,0 10.3207,6.07234 21.0619,13.4941 10.741,7.42175 32.9069,22.56534 49.2575,33.65242 17.5754,11.9176 29.0734,20.50829 28.1262,21.01439 -0.8813,0.47082 -12.7874,3.0058 -26.458,5.63326 -13.6706,2.62748 -28.6821,5.6171 -33.359,6.64359 -4.6768,1.0265 -24.1034,4.87218 -43.1703,8.54598 -19.0668,3.67379 -43.4974,8.40975 -54.29,10.52436 -10.7926,2.11461 -23.155,4.48752 -27.4721,5.27313 -4.317,0.7856 -8.6235,1.66368 -9.57,1.95127 -1.2373,0.37599 -1.4648,-0.30172 -0.8095,-2.41231 z"
       id="path4299"
       inkscape:connector-curvature="0" />
    <path
       style="opacity:1;fill:#d40000;fill-opacity:1;fill-rule:evenodd;stroke:none"
       d="m -1170.5578,413.43751 c -9.7135,-6.64027 -33.1649,-22.55527 -52.1146,-35.36667 -18.9495,-12.8114 -40.8652,-27.7086 -48.7013,-33.1049 -7.8362,-5.39631 -21.0434,-14.47866 -29.3492,-20.18302 -8.3058,-5.70438 -14.6473,-10.80372 -14.0918,-11.33189 0.5553,-0.52817 6.0135,-2.4585 12.1292,-4.28962 31.9351,-9.56161 58.7966,-11.92343 91.5817,-8.05242 24.7092,2.91747 37.9295,6.76761 37.9295,11.04612 0,1.41634 2.3689,14.82354 5.2641,29.79378 2.8951,14.97024 7.0433,36.63763 9.2182,48.14972 2.175,11.5121 4.5703,23.71051 5.3231,27.10757 0.7528,3.39706 1.1669,6.65529 0.9202,7.24051 -0.2467,0.58522 -8.3958,-4.36891 -18.1091,-11.00918 z"
       id="path4301"
       inkscape:connector-curvature="0" />
    <path
       style="opacity:1;fill:#d40000;fill-opacity:1;fill-rule:evenodd;stroke:none"
       d="m -1114.8217,510.02156 c -0.3688,-0.59672 -1.3031,-5.15904 -2.0762,-10.1385 -1.4366,-9.2522 -9.92,-54.86138 -14.5801,-78.3878 -1.4252,-7.19507 -4.8792,-25.44436 -7.6755,-40.554 -2.7963,-15.10963 -6.5856,-35.41934 -8.4204,-45.13268 -1.835,-9.71333 -3.3418,-17.80013 -3.3486,-17.97065 -0.026,-0.66746 12.9519,5.84185 23.116,11.59347 29.6231,16.76316 56.0896,42.50105 74.913,72.85078 l 6.4408,10.38468 -21.0265,31.23217 c -25.6777,38.14089 -45.6797,67.20747 -46.2484,67.20747 -0.2329,0 -0.7253,-0.48822 -1.0941,-1.08494 z"
       id="path4303"
       inkscape:connector-curvature="0" />
    <path
       style="opacity:1;fill:#d40000;fill-opacity:1;fill-rule:evenodd;stroke:none"
       d="m -1148.1005,601.42299 c 0.4314,-1.24377 15.0456,-23.10741 62.119,-92.93287 34.1096,-50.59606 49.0037,-71.95064 50.183,-71.95064 1.5403,0 8.8791,23.88697 11.6555,37.93761 4.7586,24.08099 5.7434,41.75711 3.4989,62.79328 -1.1133,10.43285 -3.3629,24.23679 -4.9994,30.67544 l -2.9753,11.70665 -25.5099,4.93879 c -44.5603,8.62712 -80.2508,15.55831 -86.7322,16.84369 -7.7298,1.53298 -7.7755,1.53292 -7.2396,-0.0118 l 0,-1.8e-4 z"
       id="path4305"
       inkscape:connector-curvature="0" />
    <path
       style="opacity:1;fill:#d40000;fill-opacity:1;fill-rule:evenodd;stroke:none"
       d="m -1165.4114,689.48356 c -29.5807,-19.75021 -61.5755,-41.6662 -67.5583,-46.2765 -2.8038,-2.1606 -2.3408,-2.32989 15.6983,-5.74012 10.2231,-1.93262 28.8894,-5.50804 41.4807,-7.94537 72.7663,-14.08546 100.819,-19.55259 118.2322,-23.04199 10.7049,-2.14515 19.7404,-3.62342 20.0786,-3.28508 1.1971,1.19704 -14.2409,29.08233 -22.4504,40.55158 -16.7915,23.45901 -35.0199,40.98481 -59.4827,57.18967 -7.4859,4.95889 -14.0004,9.01615 -14.4765,9.01615 -0.476,0 -14.661,-9.21074 -31.5219,-20.46834 z"
       id="path4307"
       inkscape:connector-curvature="0" />
    <path
       style="opacity:1;fill:#d40000;fill-opacity:1;fill-rule:evenodd;stroke:none"
       d="m -1267.0048,734.15689 c -12.3215,-1.67919 -30.4106,-5.55843 -32.797,-7.03331 -0.729,-0.45054 -2.9041,-9.64956 -4.8333,-20.44214 -1.9292,-10.79259 -5.2687,-29.04191 -7.4211,-40.55399 -6.239,-33.37006 -10.2241,-56.0637 -9.899,-56.36911 0.3462,-0.32498 14.1878,8.91546 91.2204,60.89733 30.579,20.63482 59.6282,40.41992 64.5537,43.96684 l 8.9555,6.44907 -13.085,4.21504 c -31.2043,10.05166 -65.1651,13.16708 -96.6942,8.87027 z"
       id="path4309"
       inkscape:connector-curvature="0" />
    <path
       style="opacity:1;fill:#d40000;fill-opacity:1;fill-rule:evenodd;stroke:none"
       d="m -1257.379,622.88834 c -26.2305,-5.21231 -48.4706,-18.00813 -64.4127,-37.05982 -8.406,-10.04555 -19.0092,-30.98537 -21.9387,-43.32537 -6.5902,-27.76052 -2.1226,-57.35407 12.3734,-81.96144 6.4795,-10.99905 26.0993,-30.35747 37.3703,-36.87244 32.2901,-18.66466 69.8772,-19.92329 103.216,-3.45622 21.6576,10.69736 37.6366,26.70708 48.2842,48.37716 8.7666,17.84189 10.4503,25.51901 10.4722,47.74907 0.021,21.46373 -1.6326,29.69153 -9.1799,45.67067 -15.416,32.63846 -44.4165,54.75252 -79.923,60.94433 -13.5131,2.35649 -24.1686,2.33711 -36.2618,-0.0659 z m 39.5853,-25.4749 c 11.0522,-2.64951 22.2889,-7.48035 26.753,-11.50154 4.849,-4.36807 5.1268,-6.48916 2.1424,-16.36075 -4.6778,-15.47202 -10.4136,-29.37443 -12.4403,-30.15212 -1.0473,-0.40186 -18.3731,-1.13765 -38.502,-1.63508 l -36.5979,-0.9044 -2.6998,6.29851 c -1.4849,3.4642 -5.0873,13.31382 -8.0053,21.88807 -5.177,15.21229 -5.2472,15.65393 -2.9015,18.25151 3.1486,3.48659 14.9063,9.37169 26.8559,13.44224 12.4191,4.23047 29.5008,4.48392 45.3955,0.67356 z m -83.5434,-66.3131 c 12.062,-30.67416 29.9564,-79.3842 30.9046,-84.12483 1.1224,-5.61242 -1.933,-5.11959 -12.7202,2.05172 -23.9598,15.92851 -37.8474,41.80368 -37.8474,70.51694 0,14.58897 5.7098,35.66388 9.335,34.45551 0.8376,-0.27923 5.4852,-10.58392 10.328,-22.89934 z m 140.0204,15.65443 c 3.5209,-9.16996 4.8412,-30.52512 2.7295,-44.15152 -2.263,-14.60295 -10.1511,-29.01929 -22.9465,-41.93708 -9.3989,-9.48893 -18.985,-16.27753 -22.9851,-16.27753 -2.4187,0 -1.4739,4.57827 4.6242,22.40507 5.9607,17.42567 10.103,28.47434 23.7251,63.28161 3.9422,10.07308 7.686,19.63925 8.3196,21.25814 1.8167,4.64236 3.4257,3.51479 6.5332,-4.57869 z m -49.7952,-36.37096 c 0,-1.00263 -14.46,-39.13728 -20.5222,-54.1221 -2.7432,-6.78067 -5.6315,-12.53881 -6.4186,-12.79584 -1.4782,-0.48273 -8.562,15.27057 -20.0724,44.63773 -6.9298,17.68057 -7.6882,21.04673 -4.9875,22.13652 2.2458,0.90615 52.0007,1.04364 52.0007,0.14369 z"
       id="path4311"
       inkscape:connector-curvature="0" />
    <circle
       style="opacity:1;fill:none;fill-opacity:1;fill-rule:evenodd;stroke:none"
       id="path4313"
       cx="-1233.7061"
       cy="512.44885"
       r="243.35182" />
    <ellipse
       style="opacity:1;fill:none;fill-opacity:1;fill-rule:evenodd;stroke:none"
       id="path4322"
       cy="1022.2781"
       cx="564.92041"
       transform="scale(-1,1)"
       rx="299.44034"
       ry="273.59772" />
    <flowRoot
       xml:space="preserve"
       id="flowRoot5015"
       style="font-style:normal;font-weight:normal;font-size:95px;line-height:125%;font-family:sans-serif;letter-spacing:0px;word-spacing:0px;fill:#000000;fill-opacity:1;stroke:none;stroke-width:1px;stroke-linecap:butt;stroke-linejoin:miter;stroke-opacity:1"
       transform="translate(-30.785709,126.5765)"><flowRegion
         id="flowRegion5017"><rect
           id="rect5019"
           width="160"
           height="111.42857"
           x="-102.85714"
           y="1020.1429" /></flowRegion><flowPara
         id="flowPara5021" /></flowRoot>    <circle
       style="opacity:1;fill:none;fill-opacity:1;fill-rule:evenodd;stroke:none"
       id="path5023"
       cx="1294.5303"
       cy="380.3743"
       r="324.92999"
       transform="matrix(-0.99541877,0.09561108,0.09561108,0.99541877,0,0)" />
    <g
       style="font-style:normal;font-weight:normal;font-size:95px;line-height:125%;font-family:sans-serif;letter-spacing:3px;word-spacing:40px;fill:#000000;fill-opacity:1;stroke:none;stroke-width:1px;stroke-linecap:butt;stroke-linejoin:miter;stroke-opacity:1"
       id="text5025"
       transform="matrix(0.96785335,0.00669662,-0.00669662,0.96785335,-32.398728,27.672401)">
      <path
         d="m -1542.1097,612.30098 q -4.7332,0.99898 -8.894,-0.19247 -4.1375,-1.08139 -7.4762,-3.82607 -3.2055,-2.65783 -5.5658,-6.75882 -2.2501,-4.12421 -3.2956,-9.07759 l -7.8757,-37.31544 78.1533,-16.49484 8.503,40.28747 q 0.8596,4.07278 -0.2047,7.74675 -1.0642,3.67396 -3.4383,6.58957 -2.264,2.89238 -5.6409,4.86987 -3.2436,2.06433 -6.8761,2.83099 -5.7239,1.20807 -11.4146,-0.69527 -5.5574,-1.81651 -9.1175,-6.69908 -0.5642,7.13276 -5.0346,12.10053 -4.3372,5.05461 -11.8223,6.6344 z m -0.3601,-13.1465 q 2.4216,-0.51111 4.4373,-1.85636 2.0388,-1.23516 3.3879,-3.01462 1.3724,-1.66939 1.9449,-3.85983 0.5725,-2.19044 0.085,-4.50201 l -5.4363,-25.75756 -23.8863,5.04137 5.2737,24.98704 q 0.5111,2.42165 1.8331,4.32722 1.4321,1.88234 3.2984,3.09814 1.9764,1.19257 4.2537,1.63176 2.3873,0.41595 4.809,-0.0951 z m 37.3308,-45.9368 -23.0057,4.85552 4.7859,22.67546 q 0.4878,2.31158 1.7634,3.997 1.2988,1.79549 3.0318,2.92445 1.8663,1.2158 4.1203,1.54491 2.2773,0.43919 4.809,-0.0951 5.0635,-1.06868 7.6516,-4.60436 2.6982,-3.55892 1.7689,-7.96192 l -4.9252,-23.33591 z"
         style="font-style:normal;font-variant:normal;font-weight:600;font-stretch:normal;font-size:112.5px;font-family:Raleway;-inkscape-font-specification:'Raleway Semi-Bold';letter-spacing:4px;word-spacing:30px"
         id="path5121"
         inkscape:connector-curvature="0" />
      <path
         d="m -1522.6106,677.7991 -10.0994,4.69527 -23.0969,-49.681 72.4302,-33.67315 22.6701,48.76287 -10.0994,4.69527 -17.3583,-37.33726 -20.6069,9.58025 15.0343,32.33855 -9.4873,4.41071 -15.0344,-32.33855 -22.1371,10.29165 17.7851,38.25539 z"
         style="font-style:normal;font-variant:normal;font-weight:600;font-stretch:normal;font-size:112.5px;font-family:Raleway;-inkscape-font-specification:'Raleway Semi-Bold';letter-spacing:4px;word-spacing:30px"
         id="path5123"
         inkscape:connector-curvature="0" />
      <path
         d="m -1433.1627,701.89165 -16.12,-21.09619 -54.6177,41.73429 -7.7184,-10.10114 54.6177,-41.7343 -16.1883,-21.18558 8.8497,-6.76219 40.0267,52.38293 -8.8497,6.76218 z"
         style="font-style:normal;font-variant:normal;font-weight:600;font-stretch:normal;font-size:112.5px;font-family:Raleway;-inkscape-font-specification:'Raleway Semi-Bold';letter-spacing:4px;word-spacing:30px"
         id="path5125"
         inkscape:connector-curvature="0" />
      <path
         d="m -1387.7245,739.17656 -20.2996,-17.1122 -44.3032,52.55541 -9.7197,-8.19355 44.3032,-52.55541 -20.3857,-17.18471 7.1784,-8.51552 50.4051,42.49046 -7.1785,8.51552 z"
         style="font-style:normal;font-variant:normal;font-weight:600;font-stretch:normal;font-size:112.5px;font-family:Raleway;-inkscape-font-specification:'Raleway Semi-Bold';letter-spacing:4px;word-spacing:30px"
         id="path5127"
         inkscape:connector-curvature="0" />
      <path
         d="m -1365.4365,815.10108 -5.1913,9.85364 -48.4719,-25.53701 37.2305,-70.66755 47.5762,25.06508 -5.1913,9.85364 -36.4286,-19.19208 -10.5924,20.10541 31.5516,16.62265 -4.8767,9.25646 -31.5515,-16.62266 -11.379,21.59839 37.3244,19.66403 z"
         style="font-style:normal;font-variant:normal;font-weight:600;font-stretch:normal;font-size:112.5px;font-family:Raleway;-inkscape-font-specification:'Raleway Semi-Bold';letter-spacing:4px;word-spacing:30px"
         id="path5129"
         inkscape:connector-curvature="0" />
      <path
         d="m -1354.4405,831.10664 20.549,-77.18649 33.5924,8.94315 q 5.2183,1.38923 8.9879,4.72118 3.8785,3.3609 6.076,7.78777 2.2266,4.31815 2.7504,9.34719 0.6615,4.94926 -0.583,9.62394 -1.0419,3.91368 -3.0841,7.2118 -2.0423,3.29812 -4.8095,5.82113 -2.7672,2.52302 -6.2016,4.0535 -3.4053,1.42177 -7.0649,1.61169 l 10.3407,34.18597 -13.8066,-3.67567 -9.5931,-31.30931 -17.829,-4.74652 -7.1487,26.8522 -12.1759,-3.24153 z m 22.1899,-34.3733 21.3078,5.67268 q 2.6091,0.69462 4.9641,0.15738 2.4927,-0.617 4.5356,-2.16865 2.0719,-1.66036 3.6362,-4.03794 1.5643,-2.37759 2.3458,-5.31285 0.7814,-2.93526 0.3889,-5.8338 -0.2838,-2.8696 -1.5023,-5.28952 -1.1097,-2.39097 -3.1033,-4.08589 -1.8559,-1.77469 -4.2476,-2.41142 l -20.6555,-5.49903 -7.6697,28.80904 z"
         style="font-style:normal;font-variant:normal;font-weight:600;font-stretch:normal;font-size:112.5px;font-family:Raleway;-inkscape-font-specification:'Raleway Semi-Bold';letter-spacing:4px;word-spacing:30px"
         id="path5131"
         inkscape:connector-curvature="0" />
      <path
         d="m -1216.0912,849.67195 -11.9544,-78.97537 33.1474,-5.01748 q 5.3392,-0.80818 10.1252,0.74299 4.8973,1.53433 8.6787,4.71674 3.7645,3.07118 6.2514,7.47356 2.5813,4.27432 3.3053,9.05733 0.7577,5.00548 -0.3149,9.94666 -0.9782,4.81311 -3.5371,8.95524 -2.5757,4.03089 -6.6883,6.92904 -4.0181,2.77007 -9.3573,3.57826 l -21.3567,3.23273 4.1587,27.47453 -12.458,1.88577 z m 6.6324,-40.37235 20.5781,-3.11488 q 2.6696,-0.40409 4.6146,-1.83633 2.0563,-1.44907 3.3105,-3.68699 1.2542,-2.23791 1.74,-5.0422 0.4857,-2.80428 0,-6.03004 -0.5051,-3.33698 -1.9103,-5.85504 -1.4051,-2.51805 -3.4711,-4.13962 -2.0828,-1.7328 -4.5702,-2.38031 -2.3931,-0.77559 -4.8402,-0.40517 l -19.9107,3.01386 4.4619,29.47672 z"
         style="font-style:normal;font-variant:normal;font-weight:600;font-stretch:normal;font-size:112.5px;font-family:Raleway;-inkscape-font-specification:'Raleway Semi-Bold';letter-spacing:4px;word-spacing:30px"
         id="path5133"
         inkscape:connector-curvature="0" />
      <path
         d="m -1112.7824,737.90055 30.4744,73.83309 -11.7509,4.85015 -13.4345,-32.54895 -37.2285,15.36597 13.4345,32.54896 -11.6469,4.80723 -30.4744,-73.8331 11.6469,-4.80723 12.7477,30.88511 37.2285,-15.36597 -12.7477,-30.88511 11.7509,-4.85015 z"
         style="font-style:normal;font-variant:normal;font-weight:600;font-stretch:normal;font-size:112.5px;font-family:Raleway;-inkscape-font-specification:'Raleway Semi-Bold';letter-spacing:4px;word-spacing:30px"
         id="path5135"
         inkscape:connector-curvature="0" />
      <path
         d="m -1036.1802,780.79308 q -6.8086,5.17165 -14.494,6.77108 -7.6638,1.4418 -15.0976,0.0246 -7.5018,-1.50674 -14.1646,-5.62866 -6.5732,-4.18996 -11.2005,-10.28183 -4.8314,-6.36063 -6.9253,-13.95299 -2.0939,-7.59236 -1.4649,-15.13384 0.7186,-7.60953 4.2996,-14.42651 3.6025,-6.97462 10.2319,-12.01017 6.8085,-5.17165 14.5404,-6.52387 7.7534,-1.50985 15.1657,0.0649 7.5018,1.50674 14.075,5.6967 6.5947,4.03233 11.154,10.03461 4.8314,6.36064 6.9253,13.953 2.1834,7.52431 1.4648,15.13384 -0.7866,7.51994 -4.3891,14.49456 -3.5809,6.81698 -10.1207,11.78449 z m -44.7438,-16.87223 q 3.4024,4.47931 8.034,7.6011 4.6316,3.12179 9.6794,4.37351 5.1373,1.18367 10.397,0.29655 5.1916,-0.97671 9.8501,-4.5152 4.8377,-3.6746 7.0136,-8.43547 2.1976,-4.9185 2.2778,-10.20659 0.08,-5.28809 -1.7062,-10.42978 -1.7864,-5.14169 -5.0527,-9.44184 -3.4705,-4.5689 -8.0341,-7.6011 -4.6316,-3.12179 -9.7009,-4.21588 -5.0477,-1.25171 -10.2393,-0.27501 -5.1701,0.81907 -9.739,4.28952 -4.8377,3.6746 -7.0352,8.5931 -2.2656,4.82892 -2.4139,10.02742 -0.1482,5.1985 1.6166,10.49783 1.7865,5.14169 5.0528,9.44184 z"
         style="font-style:normal;font-variant:normal;font-weight:600;font-stretch:normal;font-size:112.5px;font-family:Raleway;-inkscape-font-specification:'Raleway Semi-Bold';letter-spacing:4px;word-spacing:30px"
         id="path5137"
         inkscape:connector-curvature="0" />
      <path
         d="m -1013.0202,657.41577 -16.9378,20.44537 52.9327,43.85171 -8.11006,9.78952 -52.93274,-43.85171 -17.0095,20.53199 -8.5767,-7.10526 42.0575,-50.76689 8.5766,7.10527 z"
         style="font-style:normal;font-variant:normal;font-weight:600;font-stretch:normal;font-size:112.5px;font-family:Raleway;-inkscape-font-specification:'Raleway Semi-Bold';letter-spacing:4px;word-spacing:30px"
         id="path5139"
         inkscape:connector-curvature="0" />
      <path
         d="m -938.89301,662.0995 q -3.77238,7.67278 -9.92822,12.54402 -6.20716,4.72064 -13.4887,6.7819 -7.38249,2.01163 -15.18565,1.30919 -7.75353,-0.80339 -14.61865,-4.17868 -7.168,-3.5242 -12.43967,-9.37549 -5.2717,-5.85128 -8.086,-12.8762 -2.7646,-7.12589 -2.6149,-14.82473 0.098,-7.84943 3.7715,-15.3203 3.7724,-7.67278 10.0805,-12.34379 6.25682,-4.8216 13.58968,-6.73227 7.38249,-2.01163 15.13602,-1.20823 7.70221,0.6528 14.46637,3.97846 7.168,3.5242 12.43969,9.37548 5.32134,5.75032 8.08594,12.87621 2.66364,7.07625 2.56526,14.92568 -0.1497,7.69884 -3.77317,15.06875 z m -47.56265,4.94725 q 5.04789,2.48183 10.58708,3.19943 5.5392,0.7176 10.61314,-0.42326 5.12358,-1.24181 9.42938,-4.39002 4.20485,-3.19786 6.78596,-8.44766 2.68038,-5.45171 2.49441,-10.68298 -0.23729,-5.38187 -2.53326,-10.1462 -2.29597,-4.76433 -6.19548,-8.56198 -3.8995,-3.79765 -8.74547,-6.18021 -5.14884,-2.53146 -10.58708,-3.19943 -5.5392,-0.71759 -10.56182,0.57385 -5.07394,1.14086 -9.27879,4.33871 -4.25617,3.04726 -6.78761,8.1961 -2.6804,5.45172 -2.4431,10.83358 0.1363,5.33223 2.3313,10.04692 2.19504,4.7147 6.14587,8.66294 3.8995,3.79765 8.74547,6.18021 z"
         style="font-style:normal;font-variant:normal;font-weight:600;font-stretch:normal;font-size:112.5px;font-family:Raleway;-inkscape-font-specification:'Raleway Semi-Bold';letter-spacing:4px;word-spacing:30px"
         id="path5141"
         inkscape:connector-curvature="0" />
      <path
         d="m -967.75696,551.33499 q -1.4498,0.83373 -3.22642,2.63234 -1.88651,1.77452 -3.72198,4.36645 -1.81135,2.48204 -3.32779,5.71982 -1.49233,3.1279 -2.26365,6.6443 -1.71138,7.80201 0.32616,12.16488 2.06165,4.25299 7.11647,5.36177 2.85708,0.6267 4.9662,-0.0624 2.02334,-0.8231 3.98217,-2.92727 1.84893,-2.12828 3.74323,-5.51353 1.78442,-3.40935 4.05375,-7.97925 2.73015,-5.62057 5.52482,-9.96007 2.81877,-4.44939 6.0693,-7.19162 3.25052,-2.74224 7.37236,-3.6809 4.03605,-1.07266 9.31065,0.0843 5.93392,1.30161 9.71335,4.5493 3.80353,3.1378 5.68298,7.69635 1.79366,4.42455 1.97943,9.87851 0.0759,5.42985 -1.22573,11.36378 -1.95242,8.90088 -6.42161,16.67383 -4.55498,7.63896 -11.19003,13.20922 l -9.31989,-7.91824 q 1.74188,-1.11518 4.07858,-3.36682 2.36079,-2.36152 4.67054,-5.54047 2.22397,-3.31293 4.23879,-7.24762 1.90493,-3.95879 2.89319,-8.46417 1.59086,-7.25257 -0.0688,-11.76291 -1.65967,-4.51034 -6.60461,-5.59501 -2.96696,-0.65081 -5.28239,0.45374 -2.29132,0.99467 -4.32246,3.42851 -2.14102,2.40973 -4.21752,6.10053 -2.0765,3.69081 -4.50393,8.45639 -2.81593,5.48658 -5.4284,9.52052 -2.69825,3.89995 -5.74247,6.22673 -3.04423,2.32679 -6.56842,3.1662 -3.60997,0.70542 -8.22525,-0.30694 -5.71415,-1.2534 -9.62757,-4.41531 -4.0233,-3.18601 -6.17073,-7.57298 -2.23322,-4.52097 -2.63876,-10.02314 -0.40554,-5.50216 0.92018,-11.54597 1.73548,-7.9119 5.73322,-14.06064 3.99775,-6.14875 8.84271,-10.38404 l 8.88034,7.82182 z"
         style="font-style:normal;font-variant:normal;font-weight:600;font-stretch:normal;font-size:112.5px;font-family:Raleway;-inkscape-font-specification:'Raleway Semi-Bold';letter-spacing:4px;word-spacing:30px"
         id="path5143"
         inkscape:connector-curvature="0" />
    </g>
    <circle
       style="opacity:1;fill:none;fill-opacity:1;fill-rule:evenodd;stroke:none"
       id="path5032"
       cx="1211.7324"
       cy="-564.58398"
       transform="matrix(-0.99911582,-0.04204266,0.04204266,-0.99911582,0,0)"
       r="241.27779" />
    <g
       style="font-style:normal;font-weight:normal;font-size:95px;line-height:125%;font-family:sans-serif;letter-spacing:0px;word-spacing:0px;fill:#000000;fill-opacity:1;stroke:none;stroke-width:1px;stroke-linecap:butt;stroke-linejoin:miter;stroke-opacity:1"
       id="text5034"
       transform="matrix(0.96781271,-0.01111347,0.01111347,0.96781271,-43.749555,5.6261256)">
      <path
         d="m -1524.9993,466.79173 q 4.69,0.57393 7.5321,4.20857 2.744,3.5093 2.1838,8.08764 -0.2734,2.23334 -1.301,4.14769 -1.1393,1.90069 -2.7823,3.28638 -1.741,1.26035 -3.8603,1.90772 -2.1193,0.64736 -4.4643,0.36039 -2.2334,-0.27331 -4.1341,-1.41262 -1.9006,-1.1393 -3.1747,-2.76862 -1.372,-1.75465 -2.0193,-3.87398 -0.6474,-2.11933 -0.3741,-4.35267 0.2733,-2.23334 1.4126,-4.13402 1.1393,-1.90068 2.8803,-3.16104 1.643,-1.38569 3.7486,-1.92139 2.1194,-0.64736 4.3527,-0.37405 z"
         style="font-style:normal;font-variant:normal;font-weight:600;font-stretch:normal;font-size:112.5px;font-family:Raleway;-inkscape-font-specification:'Raleway Semi-Bold';letter-spacing:-2px"
         id="path5098"
         inkscape:connector-curvature="0" />
      <path
         d="m -1538.7928,374.63636 4.807,-9.92185 85.6172,6.47826 -5.7881,11.94672 -23.2188,-1.87364 -13.44,27.74068 15.9101,16.95891 -5.8371,12.04796 -58.0503,-63.37704 z m 51.935,4.78559 -36.4711,-3.4189 25.0912,26.90736 11.3799,-23.48846 z"
         style="letter-spacing:-3px"
         id="path5100"
         inkscape:connector-curvature="0" />
      <path
         d="m -1442.9544,365.94021 -59.3995,-53.40138 22.4135,-24.93108 q 3.6102,-4.01575 8.292,-5.85794 4.7569,-1.92585 9.699,-1.86999 4.8583,-0.0194 9.5755,1.80101 4.7087,1.6615 8.3062,4.89567 3.7647,3.38459 6.0751,7.88213 2.3019,4.33866 2.9568,9.16321 0.5712,4.74934 -0.7641,9.60006 -1.3438,4.69185 -4.954,8.70759 l -14.441,16.06298 20.6644,18.57767 -8.4239,9.37007 z m -20.5229,-35.39384 13.9144,-15.47736 q 1.8051,-2.00787 2.3976,-4.34957 0.6676,-2.42536 0.2147,-4.95045 -0.4529,-2.5251 -1.8591,-4.99951 -1.4062,-2.4744 -3.8323,-4.65559 -2.5099,-2.25639 -5.1947,-3.30856 -2.6848,-1.05216 -5.3104,-0.99221 -2.7093,-0.0153 -5.0418,1.06472 -2.3408,0.92109 -3.9955,2.76164 l -13.4632,14.97539 22.1703,19.9315 z"
         style="letter-spacing:-3px"
         id="path5102"
         inkscape:connector-curvature="0" />
      <path
         d="m -1356.5189,278.26027 6.0572,9.34634 -45.9764,29.79656 -43.4406,-67.02934 45.1268,-29.2459 6.0572,9.34634 -34.5531,22.39331 12.3591,19.07032 29.9272,-19.3953 5.6901,8.7799 -29.9272,19.3953 13.2769,20.48643 35.4028,-22.94396 z"
         style="letter-spacing:-3px"
         id="path5104"
         inkscape:connector-curvature="0" />
      <path
         d="m -1340.9021,283.42772 -23.8661,-76.22615 33.1745,-10.38679 q 5.1533,-1.61348 10.12,-0.81083 5.0741,0.76903 9.2968,3.33712 4.1892,2.46074 7.3187,6.43206 3.2033,3.83035 4.6487,8.44687 1.2102,3.86498 1.2458,7.74403 0.036,3.87905 -0.9556,7.49021 -0.9913,3.61115 -3.0768,6.7397 -2.1191,3.02118 -5.1111,5.13683 l 27.005,23.37384 -13.6348,4.269 -24.8362,-21.34152 -17.6072,5.51273 8.3027,26.51811 -12.0244,3.76479 z m 0.3939,-40.91162 21.0427,-6.58838 q 2.5767,-0.80674 4.2804,-2.51902 1.7774,-1.85325 2.6754,-4.25635 0.8644,-2.51045 0.9166,-5.35602 0.052,-2.84557 -0.8555,-5.74432 -0.9076,-2.89874 -2.7879,-5.13925 -1.773,-2.27413 -4.0958,-3.6688 -2.2155,-1.42828 -4.8062,-1.79599 -2.517,-0.50869 -4.8789,0.23083 l -20.3986,6.38669 8.9078,28.45061 z"
         style="letter-spacing:-3px"
         id="path5106"
         inkscape:connector-curvature="0" />
      <path
         d="m -1216.527,194.30112 -26.539,0.7669 1.9855,68.70882 -12.7072,0.36719 -1.9855,-68.70881 -26.6513,0.77014 -0.3217,-11.13285 65.8975,-1.90424 0.3217,11.13285 z"
         style="letter-spacing:-3px"
         id="path5108"
         inkscape:connector-curvature="0" />
      <path
         d="m -1171.3435,262.25053 q 6.0772,1.66034 10.7449,0.36985 4.6676,-1.29049 8.0928,-4.43651 3.5634,-3.2249 5.8743,-7.84158 2.4491,-4.69556 3.8722,-9.90465 l 10.6736,-39.0682 12.2631,3.35033 -10.6736,39.0682 q -2.1644,7.92216 -5.9364,14.47211 -3.7425,6.44142 -9.2106,10.66203 -5.4385,4.11208 -12.6715,5.40143 -7.1245,1.319 -16.0234,-1.11221 -9.2244,-2.52016 -14.7674,-7.4166 -5.4049,-4.97533 -7.8589,-11.3603 -2.4244,-6.4935 -2.2632,-13.91334 0.1612,-7.41984 2.2069,-14.90791 l 10.6736,-39.0682 12.1546,3.32068 -10.6736,39.0682 q -1.4528,5.31761 -1.84,10.5765 -0.2489,5.18001 1.0712,9.73911 1.4583,4.48022 4.8214,7.96473 3.5012,3.40564 9.47,5.03633 z"
         style="letter-spacing:-3px"
         id="path5110"
         inkscape:connector-curvature="0" />
      <path
         d="m -1128.3143,288.46585 43.4482,-67.02442 29.1698,18.90914 q 4.5312,2.93734 7.0833,7.27313 2.6466,4.39699 3.3647,9.28686 0.7794,4.79546 -0.2803,9.7394 -0.9042,4.91073 -3.5356,8.96995 -2.203,3.39843 -5.1664,5.9017 -2.9634,2.50327 -6.3761,4.04499 -3.4126,1.54171 -7.1521,1.93306 -3.6784,0.29695 -7.2167,-0.65607 l -0.7577,35.70765 -11.9888,-7.77171 0.5773,-32.74091 -15.4817,-10.03592 -15.115,23.31695 -10.5729,-6.8538 z m 31.7462,-25.80881 18.5025,11.99414 q 2.2656,1.46868 4.6712,1.68737 2.5612,0.18548 4.9843,-0.657 2.4843,-0.93689 4.7081,-2.71295 2.2239,-1.77605 3.8762,-4.32487 1.6522,-2.54882 2.1769,-5.42638 0.6191,-2.81636 0.2101,-5.49469 -0.3145,-2.61713 -1.6849,-4.84622 -1.2149,-2.2623 -3.2917,-3.60858 l -17.9361,-11.62697 -16.2166,25.01615 z"
         style="letter-spacing:-3px"
         id="path5112"
         inkscape:connector-curvature="0" />
      <path
         d="m -1039.3829,347.70992 q 4.0087,4.86013 8.5666,6.49647 4.5579,1.63633 9.1703,1.04027 4.7707,-0.58086 9.3204,-3.02099 4.7081,-2.42493 8.8739,-5.8609 l 31.24372,-25.7698 8.08885,9.80704 -31.24367,25.7698 q -6.3355,5.22555 -13.1937,8.40303 -6.7713,3.1059 -13.6725,3.4023 -6.8144,0.22482 -13.4678,-2.89135 -6.5819,-3.02939 -12.4517,-10.14601 -6.0845,-7.37697 -7.791,-14.57337 -1.5482,-7.18118 0.1274,-13.81311 1.7625,-6.7035 6.1716,-12.67341 4.4091,-5.96991 10.3975,-10.90912 l 31.2436,-25.7698 8.0173,9.72026 -31.2437,25.7698 q -4.2526,3.50755 -7.6006,7.58145 -3.1896,4.08911 -4.7392,8.57542 -1.3911,4.50153 -0.6519,9.2875 0.8976,4.80118 4.8346,9.57452 z"
         style="letter-spacing:-3px"
         id="path5114"
         inkscape:connector-curvature="0" />
      <path
         d="m -945.02098,414.1421 q 0.70954,-1.51446 1.13346,-4.00679 0.52776,-2.5356 0.54491,-5.71156 0.0604,-3.07212 -0.55418,-6.59421 -0.57132,-3.41824 -1.95611,-6.74125 -3.07248,-7.37292 -7.24375,-9.77848 -4.128,-2.30172 -8.90483,-0.31109 -2.69994,1.12513 -4.03254,2.89924 -1.18549,1.83467 -1.58342,4.68181 -0.29409,2.80386 0.0955,6.66345 0.49346,3.81632 1.25525,8.86148 0.98685,6.17014 1.18614,11.32782 0.24257,5.26153 -0.84761,9.37216 -1.09018,4.11063 -3.92848,7.24347 -2.69119,3.1934 -7.6757,5.27057 -5.60757,2.33682 -10.56625,1.8438 -4.91541,-0.38918 -9.06939,-3.0457 -4.00682,-2.59596 -7.28682,-6.95733 -3.1762,-4.40465 -5.513,-10.01223 -3.5053,-8.41136 -4.3019,-17.34209 -0.6494,-8.87016 1.5915,-17.23854 l 12.176,1.1417 q -0.7874,1.91254 -1.4103,5.09719 -0.5797,3.28849 -0.6487,7.21734 0.078,3.98942 0.6841,8.36823 0.7098,4.33554 2.48403,8.59315 2.85611,6.8537 6.8024,9.59677 3.94629,2.74307 8.61927,0.79573 2.80379,-1.16841 4.06714,-3.40117 1.30663,-2.12891 1.57474,-5.28758 0.37195,-3.20194 -0.0436,-7.41634 -0.4156,-4.2144 -1.16009,-9.51052 -0.83973,-6.10957 -1.01305,-10.91245 -0.0262,-4.74231 1.13324,-8.39429 1.15943,-3.65198 3.56507,-6.36075 2.55275,-2.64821 6.9142,-4.46573 5.39988,-2.25027 10.41913,-1.90437 5.12309,0.30263 9.39821,2.66492 4.42224,2.42285 7.90995,6.69768 3.48771,4.27483 5.86781,9.98625 3.11576,7.47676 3.36708,14.80656 0.25133,7.32979 -1.28874,13.57795 l -11.76065,-1.3148 z"
         style="letter-spacing:-3px"
         id="path5116"
         inkscape:connector-curvature="0" />
      <path
         d="m -951.71398,499.7699 q -4.70831,0.39681 -8.23328,-2.58017 -3.40341,-2.87432 -3.79078,-7.47053 -0.18897,-2.24205 0.42569,-4.32603 0.72675,-2.09343 2.05181,-3.78569 1.44661,-1.58961 3.38888,-2.65649 1.94226,-1.06689 4.29641,-1.2653 2.24205,-0.18896 4.33548,0.5378 2.09343,0.72675 3.67359,2.06126 1.70171,1.43716 2.7686,3.37942 1.06688,1.94226 1.25584,4.18432 0.18896,2.24205 -0.53779,4.33548 -0.72676,2.09343 -2.17337,3.68303 -1.32506,1.69227 -3.27677,2.64705 -1.94226,1.06688 -4.18431,1.25585 z"
         style="font-style:normal;font-variant:normal;font-weight:600;font-stretch:normal;font-size:112.5px;font-family:Raleway;-inkscape-font-specification:'Raleway Semi-Bold';letter-spacing:-2px"
         id="path5118"
         inkscape:connector-curvature="0" />
    </g>
    <text
       xml:space="preserve"
       style="font-style:normal;font-weight:normal;font-size:95px;line-height:125%;font-family:sans-serif;letter-spacing:0px;word-spacing:0px;fill:#000000;fill-opacity:1;stroke:none;stroke-width:1px;stroke-linecap:butt;stroke-linejoin:miter;stroke-opacity:1"
       x="-647.92859"
       y="1126.7194"
       id="text5043"
       sodipodi:linespacing="125%"><tspan
         sodipodi:role="line"
         id="tspan5045"
         x="-647.92859"
         y="1126.7194" /></text>
  </g>
</svg>
