<?xml version="1.0" encoding="UTF-8" standalone="no"?>
<!-- Created with Inkscape (http://www.inkscape.org/) -->

<svg
   xmlns:dc="http://purl.org/dc/elements/1.1/"
   xmlns:cc="http://creativecommons.org/ns#"
   xmlns:rdf="http://www.w3.org/1999/02/22-rdf-syntax-ns#"
   xmlns:svg="http://www.w3.org/2000/svg"
   xmlns="http://www.w3.org/2000/svg"
   xmlns:xlink="http://www.w3.org/1999/xlink"
   xmlns:sodipodi="http://sodipodi.sourceforge.net/DTD/sodipodi-0.dtd"
   xmlns:inkscape="http://www.inkscape.org/namespaces/inkscape"
   width="200.81244mm"
   height="202.39365mm"
   viewBox="0 0 711.54014 717.14284"
   id="svg4432"
   version="1.1"
   inkscape:version="0.91 r13725"
   sodipodi:docname="logo copy.svg">
  <defs
     id="defs4434" />
  <sodipodi:namedview
     id="base"
     pagecolor="#ffffff"
     bordercolor="#666666"
     borderopacity="1.0"
     inkscape:pageopacity="0.0"
     inkscape:pageshadow="2"
     inkscape:zoom="0.35"
     inkscape:cx="482.39745"
     inkscape:cy="428.58756"
     inkscape:document-units="px"
     inkscape:current-layer="layer1"
     showgrid="false"
     fit-margin-top="0"
     fit-margin-left="0"
     fit-margin-right="0"
     fit-margin-bottom="0"
     inkscape:window-width="1436"
     inkscape:window-height="855"
     inkscape:window-x="281"
     inkscape:window-y="0"
     inkscape:window-maximized="0" />
  <metadata
     id="metadata4437">
    <rdf:RDF>
      <cc:Work
         rdf:about="">
        <dc:format>image/svg+xml</dc:format>
        <dc:type
           rdf:resource="http://purl.org/dc/dcmitype/StillImage" />
        <dc:title></dc:title>
      </cc:Work>
    </rdf:RDF>
  </metadata>
  <g
     inkscape:label="Layer 1"
     inkscape:groupmode="layer"
     id="layer1"
     transform="translate(1597.0917,-157.13776)">
    <ellipse
       style="opacity:1;fill:#000000;fill-opacity:1;fill-rule:evenodd;stroke:none"
       id="path4260"
       cx="-1241.3217"
       cy="515.70917"
       rx="355.77008"
       ry="358.57141" />
    <circle
       style="opacity:1;fill:#ffffff;fill-opacity:1;fill-rule:evenodd;stroke:none"
       id="path4273"
       cx="-1241.5"
       cy="516.005"
       r="343.16528" />
    <path
       style="opacity:1;fill:#d40000;fill-opacity:1;fill-rule:evenodd;stroke:none"
       d="m -1350.1429,727.60109 c -39.5737,-21.2658 -68.5633,-48.3288 -93.265,-87.06682 l -5.0827,-7.9708 15.2514,-23.45777 c 23.4975,-36.14113 59.3979,-89.77523 59.8135,-89.35963 0.6259,0.62586 9.7569,48.61573 20.5576,108.04471 2.3561,12.96429 5.5687,30.64286 7.1391,39.28572 3.5686,19.64059 8.2375,45.57319 10.4807,58.21429 1.1855,6.6803 1.2451,9.6367 0.194,9.623 -0.8344,-0.011 -7.6243,-3.3016 -15.0886,-7.3127 z"
       id="path4295"
       inkscape:connector-curvature="0" />
    <path
       style="opacity:1;fill:#d40000;fill-opacity:1;fill-rule:evenodd;stroke:none"
       d="m -1466.2658,590.29078 c -9.7711,-29.98355 -13.8699,-63.70643 -11.1124,-91.42857 3.1193,-31.35995 7.5713,-51.07143 11.5349,-51.07143 2.2589,0 43.4731,-7.8941 101.2671,-19.39654 13.6689,-2.72044 25.1191,-4.67956 25.4451,-4.3536 0.7808,0.78082 -119.5981,182.32157 -120.8967,182.32157 -0.5504,0 -3.3575,-7.23214 -6.238,-16.07143 z"
       id="path4297"
       inkscape:connector-curvature="0" />
    <path
       style="opacity:1;fill:#d40000;fill-opacity:1;fill-rule:evenodd;stroke:none"
       d="m -1457.9061,420.28179 c 1.9561,-6.30146 10.4649,-21.98982 18.784,-34.63387 12.813,-19.47421 29.0675,-37.98653 44.8446,-51.0738 13.9942,-11.60836 38.6839,-28.21191 41.9514,-28.21191 0.9205,0 11.2704,6.63111 22.9999,14.73581 11.7294,8.10469 35.935,24.64177 53.7902,36.74907 19.1927,13.01423 31.7487,22.39543 30.7143,22.9481 -0.9624,0.51415 -13.964,3.28239 -28.8926,6.15163 -14.9286,2.86925 -31.3214,6.13396 -36.4286,7.25491 -5.1071,1.12096 -26.3214,5.32052 -47.1428,9.33237 -20.8214,4.01185 -47.5,9.18361 -59.2857,11.4928 -11.7857,2.30919 -25.2857,4.90045 -30,5.75835 -4.7143,0.8579 -9.4171,1.81677 -10.4506,2.13083 -1.3512,0.41059 -1.5996,-0.32949 -0.8841,-2.63429 z"
       id="path4299"
       inkscape:connector-curvature="0" />
    <path
       style="opacity:1;fill:#d40000;fill-opacity:1;fill-rule:evenodd;stroke:none"
       d="m -1165.8571,402.56301 c -10.6072,-7.2513 -36.2167,-24.63077 -56.91,-38.62106 -20.6933,-13.99029 -44.6256,-30.25831 -53.1828,-36.15117 -8.5573,-5.89286 -22.9797,-15.81096 -32.0499,-22.04023 -9.0701,-6.22928 -15.995,-11.79786 -15.3885,-12.37463 0.6064,-0.57677 6.5669,-2.68473 13.2454,-4.68435 34.8737,-10.44145 64.2069,-13.0206 100.0088,-8.79339 26.9829,3.18593 41.4198,7.39036 41.4198,12.06257 0,1.54667 2.5868,16.18758 5.7484,32.53536 3.1616,16.34778 7.6915,40.00896 10.0666,52.58039 2.375,12.57142 4.9908,25.89231 5.8128,29.60196 0.8221,3.70966 1.2743,7.2677 1.0049,7.90677 -0.2694,0.63907 -9.1684,-4.77093 -19.7755,-12.02222 z"
       id="path4301"
       inkscape:connector-curvature="0" />
    <path
       style="opacity:1;fill:#d40000;fill-opacity:1;fill-rule:evenodd;stroke:none"
       d="m -1104.9922,508.03457 c -0.4027,-0.65163 -1.423,-5.63377 -2.2673,-11.07143 -1.5688,-10.10357 -10.8327,-59.90964 -15.9217,-85.60093 -1.5563,-7.85714 -5.3282,-27.78571 -8.3818,-44.28571 -3.0536,-16.5 -7.1915,-38.67858 -9.1952,-49.28572 -2.0038,-10.60714 -3.6493,-19.43807 -3.6568,-19.62429 -0.029,-0.72887 14.1438,6.37941 25.2431,12.66028 32.349,18.30569 61.2509,46.41194 81.8065,79.55441 l 7.0334,11.34026 -22.9613,34.1061 c -28.0405,41.65057 -49.8831,73.39181 -50.5042,73.39181 -0.2543,0 -0.792,-0.53315 -1.1947,-1.18478 z"
       id="path4303"
       inkscape:connector-curvature="0" />
    <path
       style="opacity:1;fill:#d40000;fill-opacity:1;fill-rule:evenodd;stroke:none"
       d="m -1141.3333,607.84662 c 0.4711,-1.35822 16.4302,-25.23372 67.8351,-101.48441 37.2484,-55.25184 53.513,-78.57143 54.8008,-78.57143 1.682,0 9.6961,26.08501 12.728,41.42857 5.1964,26.29689 6.27193,45.59954 3.8208,68.57143 -1.2156,11.39286 -3.6723,26.46702 -5.4594,33.49814 l -3.2491,12.78388 -27.8572,5.39325 c -48.6608,9.42097 -87.6354,16.98996 -94.7132,18.39362 -8.4411,1.67404 -8.491,1.67397 -7.9058,-0.0129 l 0,-1.9e-4 z"
       id="path4305"
       inkscape:connector-curvature="0" />
    <path
       style="opacity:1;fill:#d40000;fill-opacity:1;fill-rule:evenodd;stroke:none"
       d="m -1160.2371,704.01039 c -32.3026,-21.5676 -67.2416,-45.50026 -73.7749,-50.53479 -3.0618,-2.35941 -2.5562,-2.54428 17.1428,-6.26832 11.1638,-2.11046 31.5478,-6.01489 45.2978,-8.67649 79.462,-15.38158 110.0961,-21.35179 129.1116,-25.16228 11.69,-2.34254 21.5569,-3.95685 21.9263,-3.58737 1.3072,1.30719 -15.5514,31.75845 -24.5163,44.28308 -18.3366,25.61767 -38.2424,44.75617 -64.9562,62.45217 -8.1747,5.4152 -15.2886,9.8458 -15.8085,9.8458 -0.52,0 -16.0101,-10.0583 -34.4226,-22.3518 z"
       id="path4307"
       inkscape:connector-curvature="0" />
    <path
       style="opacity:1;fill:#d40000;fill-opacity:1;fill-rule:evenodd;stroke:none"
       d="m -1271.179,752.79449 c -13.4552,-1.8337 -33.2089,-6.0699 -35.8149,-7.6805 -0.7961,-0.492 -3.1713,-10.5375 -5.278,-22.3232 -2.1068,-11.7857 -5.7536,-31.7143 -8.104,-44.2857 -6.8131,-36.44072 -11.165,-61.2226 -10.8099,-61.55611 0.378,-0.35489 15.4933,9.73585 99.6144,66.50101 33.3928,22.5336 65.115,44.1393 70.4938,48.0126 l 9.7795,7.0425 -14.2891,4.6029 c -34.0756,10.9766 -71.1615,14.3787 -105.5918,9.6865 z"
       id="path4309"
       inkscape:connector-curvature="0" />
    <path
       style="opacity:1;fill:#d40000;fill-opacity:1;fill-rule:evenodd;stroke:none"
       d="m -1260.6674,631.28718 c -28.6442,-5.69194 -52.9308,-19.66521 -70.3399,-40.47001 -9.1794,-10.96993 -20.7584,-33.83659 -23.9574,-47.3121 -7.1966,-30.315 -2.3179,-62.63171 13.512,-89.50341 7.0757,-12.01117 28.5009,-33.15092 40.809,-40.26538 35.2614,-20.38216 76.3072,-21.7566 112.7138,-3.77427 23.6505,11.68173 41.0998,29.16463 52.7272,52.82877 9.5733,19.48366 11.412,27.86722 11.4359,52.14286 0.023,23.43878 -1.7829,32.4237 -10.0247,49.87321 -16.8345,35.6418 -48.5037,59.79077 -87.2773,66.55233 -14.7566,2.57333 -26.3927,2.55217 -39.5986,-0.072 z m 43.2279,-27.81907 c 12.0692,-2.8933 24.3399,-8.16867 29.2147,-12.55989 5.2953,-4.77 5.5986,-7.08628 2.3395,-17.86624 -5.1081,-16.89573 -11.3718,-32.07741 -13.585,-32.92668 -1.1436,-0.43883 -20.0638,-1.24232 -42.0448,-1.78552 l -39.9656,-0.98763 -2.9483,6.8781 c -1.6215,3.78296 -5.5554,14.53893 -8.7419,23.90216 -5.6534,16.6121 -5.7301,17.09439 -3.1685,19.93099 3.4383,3.80742 16.2779,10.23407 29.3271,14.67918 13.5619,4.61974 32.2155,4.89652 49.5728,0.73553 z m -91.231,-72.41513 c 13.172,-33.49674 32.713,-86.68901 33.7484,-91.86586 1.2257,-6.12886 -2.1108,-5.59069 -13.8906,2.24052 -26.1647,17.39422 -41.3302,45.65039 -41.3302,77.0058 0,15.93142 6.2352,38.94561 10.194,37.62604 0.9147,-0.30491 5.99,-11.55783 11.2784,-25.0065 z m 152.9049,17.09494 c 3.8449,-10.01377 5.2866,-33.334 2.9806,-48.21428 -2.4712,-15.94669 -11.0852,-31.6896 -25.0579,-45.79607 -10.2638,-10.36208 -20.732,-17.77536 -25.1002,-17.77536 -2.6413,0 -1.6095,4.99955 5.0497,24.46675 6.5092,19.02915 11.0327,31.0945 25.9083,69.10468 4.3049,11 8.3932,21.44643 9.0851,23.21428 1.9839,5.06955 3.7409,3.83822 7.1344,-5 z m -54.3773,-39.71777 c 0,-1.09489 -15.7906,-42.73863 -22.4106,-59.10233 -2.9956,-7.40462 -6.1497,-13.69261 -7.0092,-13.97329 -1.6143,-0.52715 -9.3499,16.67574 -21.9195,48.74523 -7.5675,19.3075 -8.3957,22.98341 -5.4464,24.17348 2.4524,0.98954 56.7857,1.13968 56.7857,0.15691 z"
       id="path4311"
       inkscape:connector-curvature="0" />
    <circle
       style="opacity:1;fill:none;fill-opacity:1;fill-rule:evenodd;stroke:none"
       id="path4313"
       cx="-1239.3572"
       cy="512.43359"
       r="251.42859" />
    <ellipse
       style="opacity:1;fill:none;fill-opacity:1;fill-rule:evenodd;stroke:none"
       id="path4322"
       cy="1022.2781"
       cx="564.92041"
       transform="scale(-1,1)"
       rx="299.44034"
       ry="273.59772" />
    <flowRoot
       xml:space="preserve"
       id="flowRoot5015"
       style="font-style:normal;font-weight:normal;font-size:95px;line-height:125%;font-family:sans-serif;letter-spacing:0px;word-spacing:0px;fill:#000000;fill-opacity:1;stroke:none;stroke-width:1px;stroke-linecap:butt;stroke-linejoin:miter;stroke-opacity:1"
       transform="translate(-30.785709,126.5765)"><flowRegion
         id="flowRegion5017"><rect
           id="rect5019"
           width="160"
           height="111.42857"
           x="-102.85714"
           y="1020.1429" /></flowRegion><flowPara
         id="flowPara5021"></flowPara></flowRoot>    <circle
       style="opacity:1;fill:none;fill-opacity:1;fill-rule:evenodd;stroke:none"
       id="path5023"
       cx="1284.2325"
       cy="392.87537"
       r="335.71429"
       transform="matrix(-0.99541877,0.09561108,0.09561108,0.99541877,0,0)" />
    <text
       xml:space="preserve"
       style="font-style:normal;font-weight:normal;font-size:95px;line-height:125%;font-family:sans-serif;letter-spacing:3px;word-spacing:40px;fill:#000000;fill-opacity:1;stroke:none;stroke-width:1px;stroke-linecap:butt;stroke-linejoin:miter;stroke-opacity:1"
       id="text5025"
       sodipodi:linespacing="125%"><textPath
         xlink:href="#path5023"
         id="textPath5029"
         style="font-style:normal;font-variant:normal;font-weight:600;font-stretch:normal;font-size:112.5px;font-family:Raleway;-inkscape-font-specification:'Raleway Semi-Bold';letter-spacing:4px;word-spacing:30px">BETTER PHOTOS</textPath></text>
    <circle
       style="opacity:1;fill:none;fill-opacity:1;fill-rule:evenodd;stroke:none"
       id="path5032"
       cx="1217.4011"
       cy="-564.8302"
       transform="matrix(-0.99911582,-0.04204266,0.04204266,-0.99911582,0,0)"
       r="249.28571" />
    <text
       xml:space="preserve"
       style="font-style:normal;font-weight:normal;font-size:95px;line-height:125%;font-family:sans-serif;letter-spacing:0px;word-spacing:0px;fill:#000000;fill-opacity:1;stroke:none;stroke-width:1px;stroke-linecap:butt;stroke-linejoin:miter;stroke-opacity:1"
       id="text5034"
       sodipodi:linespacing="125%"><textPath
         xlink:href="#path5032"
         id="textPath5038"
         style="font-style:normal;font-variant:normal;font-weight:600;font-stretch:normal;font-size:112.5px;font-family:Raleway;-inkscape-font-specification:'Raleway Semi-Bold';letter-spacing:-2px">• <tspan
   style="letter-spacing:-3px"
   id="tspan5041">APERTURUS</tspan> •</textPath></text>
    <text
       xml:space="preserve"
       style="font-style:normal;font-weight:normal;font-size:95px;line-height:125%;font-family:sans-serif;letter-spacing:0px;word-spacing:0px;fill:#000000;fill-opacity:1;stroke:none;stroke-width:1px;stroke-linecap:butt;stroke-linejoin:miter;stroke-opacity:1"
       x="-647.92859"
       y="1126.7194"
       id="text5043"
       sodipodi:linespacing="125%"><tspan
         sodipodi:role="line"
         id="tspan5045"
         x="-647.92859"
         y="1126.7194"></tspan></text>
  </g>
</svg>
