<?xml version="1.0" encoding="UTF-8" standalone="no"?>
<!-- Created with Inkscape (http://www.inkscape.org/) -->

<svg
   xmlns:dc="http://purl.org/dc/elements/1.1/"
   xmlns:cc="http://creativecommons.org/ns#"
   xmlns:rdf="http://www.w3.org/1999/02/22-rdf-syntax-ns#"
   xmlns:svg="http://www.w3.org/2000/svg"
   xmlns="http://www.w3.org/2000/svg"
   xmlns:xlink="http://www.w3.org/1999/xlink"
   xmlns:sodipodi="http://sodipodi.sourceforge.net/DTD/sodipodi-0.dtd"
   xmlns:inkscape="http://www.inkscape.org/namespaces/inkscape"
   width="200.81244mm"
   height="202.39365mm"
   viewBox="0 0 711.54014 717.14284"
   id="svg4432"
   version="1.1"
   inkscape:version="0.91 r13725"
   sodipodi:docname="logo-w-text.svg">
  <defs
     id="defs4434" />
  <sodipodi:namedview
     id="base"
     pagecolor="#ffffff"
     bordercolor="#666666"
     borderopacity="1.0"
     inkscape:pageopacity="0.0"
     inkscape:pageshadow="2"
     inkscape:zoom="0.35"
     inkscape:cx="-540.72581"
     inkscape:cy="698.57169"
     inkscape:document-units="px"
     inkscape:current-layer="layer1"
     showgrid="false"
     fit-margin-top="0"
     fit-margin-left="0"
     fit-margin-right="0"
     fit-margin-bottom="0"
     inkscape:window-width="1436"
     inkscape:window-height="855"
     inkscape:window-x="285"
     inkscape:window-y="23"
     inkscape:window-maximized="0" />
  <metadata
     id="metadata4437">
    <rdf:RDF>
      <cc:Work
         rdf:about="">
        <dc:format>image/svg+xml</dc:format>
        <dc:type
           rdf:resource="http://purl.org/dc/dcmitype/StillImage" />
        <dc:title />
      </cc:Work>
    </rdf:RDF>
  </metadata>
  <g
     inkscape:label="Layer 1"
     inkscape:groupmode="layer"
     id="layer1"
     transform="translate(1597.0917,-157.13776)">
    <ellipse
       style="opacity:1;fill:none;fill-opacity:1;fill-rule:evenodd;stroke:none"
       id="path4322"
       cy="1022.2781"
       cx="564.92041"
       transform="scale(-1,1)"
       rx="299.44034"
       ry="273.59772" />
    <flowRoot
       xml:space="preserve"
       id="flowRoot5015"
       style="font-style:normal;font-weight:normal;font-size:95px;line-height:125%;font-family:sans-serif;letter-spacing:0px;word-spacing:0px;fill:#000000;fill-opacity:1;stroke:none;stroke-width:1px;stroke-linecap:butt;stroke-linejoin:miter;stroke-opacity:1"
       transform="translate(-30.785709,126.5765)"><flowRegion
         id="flowRegion5017"><rect
           id="rect5019"
           width="160"
           height="111.42857"
           x="-102.85714"
           y="1020.1429" /></flowRegion><flowPara
         id="flowPara5021" /></flowRoot>    <text
       xml:space="preserve"
       style="font-style:normal;font-weight:normal;font-size:95px;line-height:125%;font-family:sans-serif;letter-spacing:0px;word-spacing:0px;fill:#000000;fill-opacity:1;stroke:none;stroke-width:1px;stroke-linecap:butt;stroke-linejoin:miter;stroke-opacity:1"
       x="-647.92859"
       y="1126.7194"
       id="text5043"
       sodipodi:linespacing="125%"><tspan
         sodipodi:role="line"
         id="tspan5045"
         x="-647.92859"
         y="1126.7194" /></text>
    <text
       xml:space="preserve"
       style="font-style:normal;font-weight:normal;font-size:40px;line-height:125%;font-family:sans-serif;letter-spacing:0px;word-spacing:0px;fill:#000000;fill-opacity:1;stroke:none;stroke-width:1px;stroke-linecap:butt;stroke-linejoin:miter;stroke-opacity:1"
       id="text4179"
       sodipodi:linespacing="125%"
       transform="matrix(-0.99956402,0.02952571,-0.02952571,-0.99956402,-5471.954,433.01985)"><textPath
         xlink:href="#path4229"
         id="textPath4270"
         style="font-style:normal;font-variant:normal;font-weight:normal;font-stretch:normal;font-size:97.5px;font-family:Raleway;-inkscape-font-specification:Raleway;letter-spacing:-3.20000005px"> • THIS GREAT PIC • SHARE THE BEST</textPath></text>
    <flowRoot
       xml:space="preserve"
       id="flowRoot4187"
       style="fill:black;stroke:none;stroke-opacity:1;stroke-width:1px;stroke-linejoin:miter;stroke-linecap:butt;fill-opacity:1;font-family:sans-serif;font-style:normal;font-weight:normal;font-size:40px;line-height:125%;letter-spacing:0px;word-spacing:0px"><flowRegion
         id="flowRegion4189"><rect
           id="rect4191"
           width="1308.5714"
           height="1880"
           x="-1594.2858"
           y="-1022.8572" /></flowRegion><flowPara
         id="flowPara4193"></flowPara></flowRoot>    <flowRoot
       xml:space="preserve"
       id="flowRoot4195"
       style="fill:black;stroke:none;stroke-opacity:1;stroke-width:1px;stroke-linejoin:miter;stroke-linecap:butt;fill-opacity:1;font-family:sans-serif;font-style:normal;font-weight:normal;font-size:40px;line-height:125%;letter-spacing:0px;word-spacing:0px"><flowRegion
         id="flowRegion4197"><rect
           id="rect4199"
           width="691.42859"
           height="974.28571"
           x="-1088.5714"
           y="-582.85718" /></flowRegion><flowPara
         id="flowPara4201"></flowPara></flowRoot>    <circle
       style="fill:none;fill-opacity:1;stroke:#000000;stroke-width:0.92606282;stroke-opacity:1"
       id="path4229"
       cx="-2738.5205"
       cy="175.70918"
       r="250.03699" />
    <path
       style="opacity:1;fill:#d40000;fill-opacity:1;fill-rule:evenodd;stroke:none"
       d="m -2850.5344,388.33532 c -39.5737,-21.2658 -68.5633,-48.3288 -93.265,-87.06682 l -5.0827,-7.9708 15.2514,-23.45777 c 23.4975,-36.14113 59.3979,-89.77523 59.8135,-89.35963 0.6259,0.62586 9.7569,48.61573 20.5576,108.04471 2.3561,12.96429 5.5687,30.64286 7.1391,39.28572 3.5686,19.64059 8.2375,45.57319 10.4807,58.21429 1.1855,6.6803 1.2451,9.6367 0.194,9.623 -0.8344,-0.011 -7.6243,-3.3016 -15.0886,-7.3127 z"
       id="path4295"
       inkscape:connector-curvature="0" />
    <path
       style="opacity:1;fill:#d40000;fill-opacity:1;fill-rule:evenodd;stroke:none"
       d="m -2966.6573,251.02501 c -9.7711,-29.98355 -13.8699,-63.70643 -11.1124,-91.42857 3.1193,-31.35995 7.5713,-51.07143 11.5349,-51.07143 2.2589,0 43.4731,-7.8941 101.2671,-19.396537 13.6689,-2.72044 25.1191,-4.67956 25.4451,-4.3536 0.7808,0.78082 -119.5981,182.321567 -120.8967,182.321567 -0.5504,0 -3.3575,-7.23214 -6.238,-16.07143 z"
       id="path4297"
       inkscape:connector-curvature="0" />
    <path
       style="opacity:1;fill:#d40000;fill-opacity:1;fill-rule:evenodd;stroke:none"
       d="m -2958.2976,81.016023 c 1.9561,-6.30146 10.4649,-21.98982 18.784,-34.63387 12.813,-19.47421 29.0675,-37.986533 44.8446,-51.073803 13.9942,-11.60836 38.6839,-28.21191 41.9514,-28.21191 0.9205,0 11.2704,6.63111 22.9999,14.73581 11.7294,8.10469 35.935,24.64177 53.7902,36.74907 19.1927,13.014233 31.7487,22.395433 30.7143,22.948103 -0.9624,0.51415 -13.964,3.28239 -28.8926,6.15163 -14.9286,2.86925 -31.3214,6.13396 -36.4286,7.25491 -5.1071,1.12096 -26.3214,5.32052 -47.1428,9.33237 -20.8214,4.01185 -47.5,9.18361 -59.2857,11.4928 -11.7857,2.30919 -25.2857,4.90045 -30,5.75835 -4.7143,0.8579 -9.4171,1.81677 -10.4506,2.13083 -1.3512,0.41059 -1.5996,-0.32949 -0.8841,-2.63429 z"
       id="path4299"
       inkscape:connector-curvature="0" />
    <path
       style="opacity:1;fill:#d40000;fill-opacity:1;fill-rule:evenodd;stroke:none"
       d="m -2666.2486,63.297243 c -10.6072,-7.2513 -36.2167,-24.63077 -56.91,-38.62106 -20.6933,-13.990293 -44.6256,-30.258313 -53.1828,-36.151173 -8.5573,-5.89286 -22.9797,-15.81096 -32.0499,-22.04023 -9.0701,-6.22928 -15.995,-11.79786 -15.3885,-12.37463 0.6064,-0.57677 6.5669,-2.68473 13.2454,-4.68435 34.8737,-10.44145 64.2069,-13.0206 100.0088,-8.79339 26.9829,3.18593 41.4198,7.39036 41.4198,12.06257 0,1.54667 2.5868,16.18758 5.7484,32.53536 3.1616,16.34778 7.6915,40.008963 10.0666,52.580393 2.375,12.57142 4.9908,25.89231 5.8128,29.60196 0.8221,3.70966 1.2743,7.2677 1.0049,7.90677 -0.2694,0.63907 -9.1684,-4.77093 -19.7755,-12.02222 z"
       id="path4301"
       inkscape:connector-curvature="0" />
    <path
       style="opacity:1;fill:#d40000;fill-opacity:1;fill-rule:evenodd;stroke:none"
       d="m -2605.3837,168.7688 c -0.4027,-0.65163 -1.423,-5.63377 -2.2673,-11.07143 -1.5688,-10.10357 -10.8327,-59.909637 -15.9217,-85.600927 -1.5563,-7.85714 -5.3282,-27.78571 -8.3818,-44.28571 -3.0536,-16.500003 -7.1915,-38.678583 -9.1952,-49.285723 -2.0038,-10.60714 -3.6493,-19.43807 -3.6568,-19.62429 -0.029,-0.72887 14.1438,6.37941 25.2431,12.66028 32.349,18.30569 61.2509,46.41194 81.8065,79.554413 l 7.0334,11.34026 -22.9613,34.1061 c -28.0405,41.650567 -49.8831,73.391807 -50.5042,73.391807 -0.2543,0 -0.792,-0.53315 -1.1947,-1.18478 z"
       id="path4303"
       inkscape:connector-curvature="0" />
    <path
       style="opacity:1;fill:#d40000;fill-opacity:1;fill-rule:evenodd;stroke:none"
       d="m -2641.7248,268.58085 c 0.4711,-1.35822 16.4302,-25.23372 67.8351,-101.48441 37.2484,-55.25184 53.513,-78.571427 54.8008,-78.571427 1.682,0 9.6961,26.085007 12.728,41.428567 5.1964,26.29689 6.272,45.59954 3.8208,68.57143 -1.2156,11.39286 -3.6723,26.46702 -5.4594,33.49814 l -3.2491,12.78388 -27.8572,5.39325 c -48.6608,9.42097 -87.6354,16.98996 -94.7132,18.39362 -8.4411,1.67404 -8.491,1.67397 -7.9058,-0.0129 l 0,-1.9e-4 z"
       id="path4305"
       inkscape:connector-curvature="0" />
    <path
       style="opacity:1;fill:#d40000;fill-opacity:1;fill-rule:evenodd;stroke:none"
       d="m -2660.6286,364.74462 c -32.3026,-21.5676 -67.2416,-45.50026 -73.7749,-50.53479 -3.0618,-2.35941 -2.5562,-2.54428 17.1428,-6.26832 11.1638,-2.11046 31.5478,-6.01489 45.2978,-8.67649 79.462,-15.38158 110.0961,-21.35179 129.1116,-25.16228 11.69,-2.34254 21.5569,-3.95685 21.9263,-3.58737 1.3072,1.30719 -15.5514,31.75845 -24.5163,44.28308 -18.3366,25.61767 -38.2424,44.75617 -64.9562,62.45217 -8.1747,5.4152 -15.2886,9.8458 -15.8085,9.8458 -0.52,0 -16.0101,-10.0583 -34.4226,-22.3518 z"
       id="path4307"
       inkscape:connector-curvature="0" />
    <path
       style="opacity:1;fill:#d40000;fill-opacity:1;fill-rule:evenodd;stroke:none"
       d="m -2771.5705,413.52872 c -13.4552,-1.8337 -33.2089,-6.0699 -35.8149,-7.6805 -0.7961,-0.492 -3.1713,-10.5375 -5.278,-22.3232 -2.1068,-11.7857 -5.7536,-31.7143 -8.104,-44.2857 -6.8131,-36.44072 -11.165,-61.2226 -10.8099,-61.55611 0.378,-0.35489 15.4933,9.73585 99.6144,66.50101 33.3928,22.5336 65.115,44.1393 70.4938,48.0126 l 9.7795,7.0425 -14.2891,4.6029 c -34.0756,10.9766 -71.1615,14.3787 -105.5918,9.6865 z"
       id="path4309"
       inkscape:connector-curvature="0" />
  </g>
</svg>
