<?xml version="1.0" encoding="UTF-8" standalone="no"?>
<!-- Generator: Adobe Illustrator 14.0.0, SVG Export Plug-In . SVG Version: 6.00 Build 43363)  -->

<svg
   xmlns:dc="http://purl.org/dc/elements/1.1/"
   xmlns:cc="http://creativecommons.org/ns#"
   xmlns:rdf="http://www.w3.org/1999/02/22-rdf-syntax-ns#"
   xmlns:svg="http://www.w3.org/2000/svg"
   xmlns="http://www.w3.org/2000/svg"
   xmlns:sodipodi="http://sodipodi.sourceforge.net/DTD/sodipodi-0.dtd"
   xmlns:inkscape="http://www.inkscape.org/namespaces/inkscape"
   version="1.1"
   id="Layer_1"
   x="0px"
   y="0px"
   width="609.43402"
   height="609.43402"
   viewBox="0 0 609.43402 609.43402"
   enable-background="new 0 0 646 646"
   xml:space="preserve"
   inkscape:version="0.91 r13725"
   sodipodi:docname="logo_plain.svg"
   inkscape:export-filename="/Users/bburton/Desktop/thisgreatpic.png"
   inkscape:export-xdpi="72.066864"
   inkscape:export-ydpi="72.066864"><metadata
     id="metadata4222"><rdf:RDF><cc:Work
         rdf:about=""><dc:format>image/svg+xml</dc:format><dc:type
           rdf:resource="http://purl.org/dc/dcmitype/StillImage" /><dc:title /></cc:Work></rdf:RDF></metadata><defs
     id="defs4220"><circle
       style="opacity:1;fill:none;fill-opacity:1;fill-rule:evenodd;stroke:none"
       id="path4311-8"
       cx="-483.40567"
       cy="-253.47038"
       r="304.71701"
       transform="matrix(-0.94883151,-0.31578278,0.31578278,-0.94883151,0,0)" /></defs><sodipodi:namedview
     pagecolor="#ffffff"
     bordercolor="#666666"
     borderopacity="1"
     objecttolerance="10"
     gridtolerance="10"
     guidetolerance="10"
     inkscape:pageopacity="0"
     inkscape:pageshadow="2"
     inkscape:window-width="1722"
     inkscape:window-height="852"
     id="namedview4218"
     showgrid="false"
     fit-margin-top="0"
     fit-margin-left="0"
     fit-margin-right="0"
     fit-margin-bottom="0"
     inkscape:zoom="0.53328175"
     inkscape:cx="-447.38434"
     inkscape:cy="301.83047"
     inkscape:window-x="83"
     inkscape:window-y="23"
     inkscape:window-maximized="0"
     inkscape:current-layer="layer4"
     showborder="true"
     inkscape:showpageshadow="false"
     borderlayer="true" /><path
     style="fill:#a0a0a0;stroke:none;stroke-width:1px;stroke-linecap:butt;stroke-linejoin:miter;stroke-opacity:1"
     d=""
     id="path4733"
     inkscape:connector-curvature="0" /><flowRoot
     xml:space="preserve"
     id="flowRoot4339"
     style="font-style:normal;font-weight:normal;font-size:40px;line-height:125%;font-family:sans-serif;letter-spacing:0px;word-spacing:0px;fill:#000000;fill-opacity:1;stroke:none;stroke-width:1px;stroke-linecap:butt;stroke-linejoin:miter;stroke-opacity:1"
     transform="translate(-73.91194,-88.434862)"><flowRegion
       id="flowRegion4341"><rect
         id="rect4343"
         width="1097.8894"
         height="137.89915"
         x="2333.678"
         y="-1003.3929" /></flowRegion><flowPara
       id="flowPara4345" /></flowRoot><flowRoot
     xml:space="preserve"
     id="flowRoot4364"
     style="font-style:normal;font-weight:normal;font-size:40px;line-height:125%;font-family:sans-serif;letter-spacing:0px;word-spacing:0px;fill:#000000;fill-opacity:1;stroke:none;stroke-width:1px;stroke-linecap:butt;stroke-linejoin:miter;stroke-opacity:1"
     transform="translate(-73.91194,-88.434862)"><flowRegion
       id="flowRegion4366"><rect
         id="rect4368"
         width="13.259535"
         height="151.15869"
         x="1938.5439"
         y="476.37122" /></flowRegion><flowPara
       id="flowPara4370" /></flowRoot><flowRoot
     xml:space="preserve"
     id="flowRoot4380"
     style="font-style:normal;font-weight:normal;font-size:40px;line-height:125%;font-family:sans-serif;letter-spacing:0px;word-spacing:0px;fill:#000000;fill-opacity:1;stroke:none;stroke-width:1px;stroke-linecap:butt;stroke-linejoin:miter;stroke-opacity:1"
     transform="translate(-73.91194,-88.434862)"><flowRegion
       id="flowRegion4382"><rect
         id="rect4384"
         width="225.41209"
         height="334.14026"
         x="1752.9105"
         y="484.32693" /></flowRegion><flowPara
       id="flowPara4386" /></flowRoot><flowRoot
     xml:space="preserve"
     id="flowRoot4388"
     style="font-style:normal;font-weight:normal;font-size:95px;line-height:125%;font-family:sans-serif;letter-spacing:0px;word-spacing:0px;fill:#000000;fill-opacity:1;stroke:none;stroke-width:1px;stroke-linecap:butt;stroke-linejoin:miter;stroke-opacity:1"
     transform="translate(-73.91194,-88.434862)"><flowRegion
       id="flowRegion4390"><rect
         id="rect4392"
         width="111.38009"
         height="100.77246"
         x="1755.5624"
         y="147.53474" /></flowRegion><flowPara
       id="flowPara4394" /></flowRoot><flowRoot
     xml:space="preserve"
     id="flowRoot4425"
     style="font-style:normal;font-weight:normal;font-size:95px;line-height:125%;font-family:sans-serif;letter-spacing:0px;word-spacing:0px;fill:#000000;fill-opacity:1;stroke:none;stroke-width:1px;stroke-linecap:butt;stroke-linejoin:miter;stroke-opacity:1"
     transform="translate(-73.91194,-88.434862)"><flowRegion
       id="flowRegion4427"><rect
         id="rect4429"
         width="127.51233"
         height="123.76197"
         x="1211.3672"
         y="167.33374" /></flowRegion><flowPara
       id="flowPara4431" /></flowRoot><g
     inkscape:groupmode="layer"
     id="layer3"
     inkscape:label="Layer 1"
     style="display:inline;opacity:1"
     transform="translate(-73.91194,-88.434862)" /><g
     inkscape:groupmode="layer"
     id="layer4"
     inkscape:label="Layer 2"
     style="display:inline;opacity:1"
     transform="translate(-73.91194,-88.434862)"><path
       style="opacity:1;fill:#800000;fill-opacity:1;fill-rule:evenodd;stroke:none"
       d="m 112.25542,493.37251 c -7.14929,-21.93289 -11.27871,-41.67942 -14.355115,-68.64498 -2.84527,-24.93946 -2.84523,-29.01343 5.4e-4,-55.31785 2.861795,-26.45255 7.488785,-51.0751 10.157805,-54.05475 0.9559,-1.06714 73.37495,-16.36507 106.15827,-22.42505 5.15675,-0.95323 17.23947,-3.47519 26.8505,-5.60437 9.61103,-2.12918 17.85021,-3.49563 18.30928,-3.03656 0.45908,0.45907 -0.69516,2.86212 -2.56497,5.34011 -1.86981,2.47798 -9.22386,13.78757 -16.34234,25.13242 -13.58496,21.6506 -30.30795,47.96833 -37.53353,59.06821 -2.34978,3.60973 -17.96544,28.08084 -34.70146,54.38026 -43.05414,67.65642 -49.14329,76.88244 -50.74222,76.88244 -0.77908,0 -3.13562,-5.27395 -5.23676,-11.71988 z"
       id="path4291"
       inkscape:connector-curvature="0" /><path
       style="opacity:1;fill:#800000;fill-opacity:1;fill-rule:evenodd;stroke:none"
       d="m 119.52026,282.01546 c 0,-1.23362 3.78678,-9.8638 8.41507,-19.17818 15.90981,-32.01832 40.84737,-64.83111 65.65459,-86.38819 17.38325,-15.10576 47.63372,-35.61351 50.76193,-34.41311 1.17903,0.45244 18.50829,12.5257 38.50946,26.82946 20.00117,14.30376 47.51715,33.81778 61.14662,43.36448 13.62948,9.54671 25.22588,18.07769 25.76978,18.95775 0.54391,0.88006 -5.9664,2.92556 -14.46737,4.54557 -8.50094,1.62 -36.13015,7.19384 -61.39822,12.3863 -25.26806,5.19246 -72.94455,14.93124 -105.94774,21.64172 -33.00319,6.71049 -61.90443,12.71754 -64.22496,13.34901 -2.66376,0.72487 -4.21916,0.32127 -4.21916,-1.09481 z"
       id="path4293"
       inkscape:connector-curvature="0" /><path
       style="opacity:1;fill:#800000;fill-opacity:1;fill-rule:evenodd;stroke:none"
       d="M 467.36644,263.4416 C 459.1156,257.47368 427.47192,235.04097 397.0471,213.59113 299.29356,144.67375 275.36995,127.26908 276.68513,126.0265 c 2.27237,-2.14692 30.78076,-10.68231 47.2299,-14.1406 23.67596,-4.97767 82.57954,-4.49637 105.94774,0.8657 24.6747,5.66186 26.59015,6.62262 27.69759,13.89276 0.5215,3.42349 2.26056,13.3971 3.86459,22.16357 1.60409,8.76647 5.52109,30.28418 8.70459,47.81712 3.1835,17.53295 7.7117,42.21503 10.0627,54.84906 2.351,12.63403 3.8023,22.93661 3.2251,22.89461 -0.5772,-0.042 -7.8001,-4.9592 -16.0509,-10.92712 z"
       id="path4295"
       inkscape:connector-curvature="0" /><path
       style="opacity:1;fill:#800000;fill-opacity:1;fill-rule:evenodd;stroke:none"
       d="m 531.30604,384.88321 c -0.9381,-4.38027 -4.2934,-22.9399 -9.6257,-53.2451 -2.9201,-16.59558 -9.0326,-50.49401 -13.0179,-72.19448 -2.5863,-14.08253 -10.2795,-56.45571 -18.5547,-102.19738 -2.4256,-13.40755 -4.1863,-24.64719 -3.9127,-24.97697 0.6806,-0.82056 14.4509,6.19587 28.0509,14.29289 40.3519,24.02428 74.0834,58.72017 99.2564,102.09392 l 5.1664,8.90186 -20.1987,31.41454 c -27.1748,42.26439 -62.8112,96.65425 -64.684,98.72349 -0.835,0.92271 -1.951,-0.34304 -2.48,-2.81277 z"
       id="path4297"
       inkscape:connector-curvature="0" /><path
       style="opacity:1;fill:#800000;fill-opacity:1;fill-rule:evenodd;stroke:none"
       d="m 488.93104,508.00166 c 0,-0.46261 7.0423,-11.64338 15.6495,-24.84616 8.6073,-13.20278 29.8169,-45.94468 47.1324,-72.75977 64.3551,-99.66113 80.3286,-123.16697 81.8507,-120.44716 2.997,5.35539 11.3527,36.73062 15.0976,56.69099 5.3145,28.32629 5.299,70.31195 -0.037,100.8011 -6.1161,34.94512 3.179,29.64719 -81.873,46.66534 -73.1235,14.63135 -77.82,15.46997 -77.82,13.89566 z"
       id="path4299"
       inkscape:connector-curvature="0" /><path
       style="opacity:1;fill:#800000;fill-opacity:1;fill-rule:evenodd;stroke:none"
       d="M 484.11924,636.05505 C 429.20361,598.5058 377.66252,561.35554 378.84413,560.17392 c 0.35433,-0.35433 9.8689,-2.3717 21.14349,-4.48306 11.27458,-2.11135 23.87457,-4.64572 27.99997,-5.63192 4.1254,-0.9862 14.6733,-3.10459 23.43977,-4.70752 8.76647,-1.60294 19.31438,-3.70087 23.43978,-4.66208 8.7469,-2.03802 87.6669,-18.02436 106.8853,-21.65111 7.2195,-1.3624 21.1069,-4.17921 30.861,-6.25958 9.754,-2.08038 17.9784,-3.53871 18.2764,-3.24074 0.2979,0.29797 -3.1309,8.0689 -7.6198,17.26873 -17.2106,35.27322 -45.9479,72.29183 -73.704,94.94388 -13.3878,10.92588 -39.8073,29.60602 -41.8722,29.60602 -0.6579,0 -11.2665,-6.88567 -23.5746,-15.30149 z"
       id="path4301"
       inkscape:connector-curvature="0" /><path
       style="opacity:1;fill:#800000;fill-opacity:1;fill-rule:evenodd;stroke:none"
       d="m 355.79311,685.80931 c -14.97743,-1.29528 -43.82344,-6.37551 -52.82132,-9.30266 l -8.75456,-2.848 -2.13864,-13.49503 c -1.17626,-7.42227 -2.92131,-17.7142 -3.8779,-22.87094 -0.95659,-5.15675 -3.07016,-16.9704 -4.69682,-26.25254 -6.85981,-39.1438 -8.4307,-47.92102 -12.17663,-68.03578 -2.16694,-11.63593 -3.66767,-21.93778 -3.33497,-22.89299 0.3327,-0.95522 27.1856,16.90956 59.67312,39.6995 32.48752,22.78994 65.88226,46.17117 74.21053,51.9583 51.20509,35.58125 75.20652,53.74299 72.83632,55.11469 -5.931,3.43228 -32.75685,11.13609 -50.28559,14.4409 -19.13376,3.60742 -53.10737,5.82727 -68.63354,4.48455 z"
       id="path4303"
       inkscape:connector-curvature="0" /><path
       style="opacity:1;fill:#800000;fill-opacity:1;fill-rule:evenodd;stroke:none"
       d="M 245.15741,652.69618 C 201.47276,628.48999 167.10192,595.61323 140.29577,552.39281 l -9.18842,-14.81478 8.60588,-13.89884 c 11.48284,-18.54525 45.75502,-72.73625 55.63419,-87.96851 4.34786,-6.70377 11.32389,-17.50881 15.50229,-24.01118 6.76243,-10.52363 7.71612,-11.34769 8.68055,-7.50073 1.01959,4.06695 11.21078,60.09403 17.32903,95.26808 1.52486,8.76647 3.96993,22.68969 5.43347,30.94049 5.1069,28.79033 8.29256,47.11104 13.88886,79.87489 3.09971,18.14744 6.10649,35.23503 6.68172,37.97242 0.57524,2.73739 1.48387,7.08665 2.0192,9.66502 0.53532,2.57837 0.32437,4.67888 -0.4688,4.66778 -0.79316,-0.0111 -9.45851,-4.46217 -19.25633,-9.89127 z"
       id="path4305"
       inkscape:connector-curvature="0" /><circle
       style="opacity:1;fill:none;fill-opacity:1;fill-rule:evenodd;stroke:none"
       id="path4311"
       cx="-483.40567"
       cy="-253.47038"
       r="304.71701"
       transform="matrix(-0.94883151,-0.31578278,0.31578278,-0.94883151,0,0)" /><flowRoot
       xml:space="preserve"
       id="flowRoot4322"
       style="font-style:normal;font-weight:normal;font-size:95px;line-height:125%;font-family:sans-serif;letter-spacing:0px;word-spacing:0px;fill:#000000;fill-opacity:1;stroke:none;stroke-width:1px;stroke-linecap:butt;stroke-linejoin:miter;stroke-opacity:1"
       transform="translate(1037.5297,-278.78812)"><flowRegion
         id="flowRegion4324"><rect
           id="rect4326"
           width="166.89114"
           height="196.89404"
           x="-973.21912"
           y="361.45865" /></flowRegion><flowPara
         id="flowPara4328" /></flowRoot><flowRoot
       xml:space="preserve"
       id="flowRoot4330"
       style="font-style:normal;font-weight:normal;font-size:95px;line-height:125%;font-family:sans-serif;letter-spacing:0px;word-spacing:0px;fill:#000000;fill-opacity:1;stroke:none;stroke-width:1px;stroke-linecap:butt;stroke-linejoin:miter;stroke-opacity:1"
       transform="translate(1037.5297,-278.78812)"><flowRegion
         id="flowRegion4332"><rect
           id="rect4334"
           width="50.629898"
           height="95.634247"
           x="-991.97095"
           y="443.96661" /></flowRegion><flowPara
         id="flowPara4336" /></flowRoot><flowRoot
       xml:space="preserve"
       id="flowRoot4338"
       style="font-style:normal;font-weight:normal;font-size:95px;line-height:125%;font-family:sans-serif;letter-spacing:0px;word-spacing:0px;fill:#000000;fill-opacity:1;stroke:none;stroke-width:1px;stroke-linecap:butt;stroke-linejoin:miter;stroke-opacity:1"
       transform="translate(1037.5297,-278.78812)"><flowRegion
         id="flowRegion4340"><rect
           id="rect4342"
           width="80.632797"
           height="118.13643"
           x="-971.34393"
           y="440.21628" /></flowRegion><flowPara
         id="flowPara4344" /></flowRoot><text
       xml:space="preserve"
       style="font-style:normal;font-weight:normal;font-size:40px;line-height:125%;font-family:sans-serif;letter-spacing:0px;word-spacing:0px;fill:#000000;fill-opacity:1;stroke:none;stroke-width:1px;stroke-linecap:butt;stroke-linejoin:miter;stroke-opacity:1"
       x="1076.9086"
       y="425.82874"
       id="text3425"
       sodipodi:linespacing="125%"><tspan
         sodipodi:role="line"
         id="tspan3427"
         x="1076.9086"
         y="425.82874" /></text>
<flowRoot
       xml:space="preserve"
       id="flowRoot4183"
       style="font-style:normal;font-weight:normal;font-size:40px;line-height:125%;font-family:sans-serif;letter-spacing:0px;word-spacing:0px;fill:#000000;fill-opacity:1;stroke:none;stroke-width:1px;stroke-linecap:butt;stroke-linejoin:miter;stroke-opacity:1"
       transform="translate(-33.19891,-18.137928)"><flowRegion
         id="flowRegion4185"><rect
           id="rect4187"
           width="106.88534"
           height="241.89839"
           x="624.43542"
           y="372.70978" /></flowRegion><flowPara
         id="flowPara4189" /></flowRoot></g></svg>